<svg width="21" height="22" viewBox="0 0 21 22" fill="none" xmlns="http://www.w3.org/2000/svg">
<g clip-path="url(#clip0_7_47)">
<path d="M14.0078 10.6326C14.0078 9.52797 14.9032 8.63257 16.0078 8.63257C18.2169 8.63257 20.0078 10.4235 20.0078 12.6326C20.0078 14.8417 18.2169 16.6326 16.0078 16.6326C14.9032 16.6326 14.0078 15.7372 14.0078 14.6326V10.6326Z" stroke="#2B2B2B"/>
<path d="M8.00781 10.6326C8.00781 9.52797 7.11238 8.63257 6.00781 8.63257C3.79867 8.63257 2.00781 10.4235 2.00781 12.6326C2.00781 14.8417 3.79867 16.6326 6.00781 16.6326C7.11238 16.6326 8.00781 15.7372 8.00781 14.6326V10.6326Z" stroke="#2B2B2B"/>
<path d="M2.00781 12.6326V9.63257C2.00781 4.66201 6.03725 0.632568 11.0078 0.632568C15.9784 0.632568 20.0078 4.66201 20.0078 9.63257V14.4788C20.0078 16.4871 20.0078 17.4912 19.6554 18.2743C19.2543 19.1655 18.5407 19.8791 17.6495 20.2802C16.8664 20.6326 15.8623 20.6326 13.854 20.6326H11.0078" stroke="#2B2B2B" stroke-linecap="round" stroke-linejoin="round"/>
</g>
<defs>
<clipPath id="clip0_7_47">
<rect width="20" height="22" fill="white" transform="translate(0.828125)"/>
</clipPath>
</defs>
</svg>
