<svg width="21" height="23" viewBox="0 0 21 23" fill="none" xmlns="http://www.w3.org/2000/svg">
<g clip-path="url(#clip0_253_199)">
<mask id="mask0_253_199" style="mask-type:luminance" maskUnits="userSpaceOnUse" x="0" y="0" width="21" height="23">
<path d="M1.32812 1H20.3281V22H1.32812V1Z" fill="white" stroke="white"/>
</mask>
<g mask="url(#mask0_253_199)">
<path d="M14.0078 11.1324C14.0078 10.0277 14.9032 9.13232 16.0078 9.13232C18.2169 9.13232 20.0078 10.9233 20.0078 13.1324C20.0078 15.3415 18.2169 17.1324 16.0078 17.1324C14.9032 17.1324 14.0078 16.237 14.0078 15.1324V11.1324Z" stroke="#F16855"/>
<path d="M8.00781 11.1324C8.00781 10.0277 7.11238 9.13232 6.00781 9.13232C3.79867 9.13232 2.00781 10.9233 2.00781 13.1324C2.00781 15.3415 3.79867 17.1324 6.00781 17.1324C7.11238 17.1324 8.00781 16.237 8.00781 15.1324V11.1324Z" stroke="#F16855"/>
<path d="M2.00781 13.1324V10.1323C2.00781 5.16177 6.03725 1.13232 11.0078 1.13232C15.9784 1.13232 20.0078 5.16177 20.0078 10.1323V14.9786C20.0078 16.9869 20.0078 17.991 19.6554 18.7741C19.2543 19.6653 18.5407 20.3789 17.6495 20.78C16.8664 21.1324 15.8623 21.1324 13.854 21.1324H11.0078" stroke="#F16855" stroke-linecap="round" stroke-linejoin="round"/>
</g>
</g>
<defs>
<clipPath id="clip0_253_199">
<rect width="21" height="22" fill="white" transform="translate(0 0.5)"/>
</clipPath>
</defs>
</svg>
