<svg width="20" height="22" viewBox="0 0 20 22" fill="none" xmlns="http://www.w3.org/2000/svg">
<path d="M13.1802 10.6326C13.1802 9.52797 14.0756 8.63257 15.1802 8.63257C17.3893 8.63257 19.1802 10.4235 19.1802 12.6326C19.1802 14.8417 17.3893 16.6326 15.1802 16.6326C14.0756 16.6326 13.1802 15.7372 13.1802 14.6326V10.6326Z" stroke="#453116"/>
<path d="M7.18018 10.6326C7.18018 9.52797 6.28475 8.63257 5.18018 8.63257C2.97104 8.63257 1.18018 10.4235 1.18018 12.6326C1.18018 14.8417 2.97104 16.6326 5.18018 16.6326C6.28475 16.6326 7.18018 15.7372 7.18018 14.6326V10.6326Z" stroke="#453116"/>
<path d="M1.18018 12.6326V9.63257C1.18018 4.66201 5.20962 0.632568 10.1802 0.632568C15.1508 0.632568 19.1802 4.66201 19.1802 9.63257V14.4788C19.1802 16.4871 19.1802 17.4912 18.8278 18.2743C18.4267 19.1655 17.7131 19.8791 16.8219 20.2802C16.0388 20.6326 15.0347 20.6326 13.0264 20.6326H10.1802" stroke="#453116" stroke-linecap="round" stroke-linejoin="round"/>
</svg>
