<svg width="24" height="25" viewBox="0 0 24 25" fill="none" xmlns="http://www.w3.org/2000/svg">
<path d="M7 18.5V16.5M12 18.5V15.5M17 18.5V13.5M2.5 12.5C2.5 8.02166 2.5 5.78249 3.89124 4.39124C5.28249 3 7.52166 3 12 3C16.4783 3 18.7175 3 20.1088 4.39124C21.5 5.78249 21.5 8.02166 21.5 12.5C21.5 16.9783 21.5 19.2175 20.1088 20.6088C18.7175 22 16.4783 22 12 22C7.52166 22 5.28249 22 3.89124 20.6088C2.5 19.2175 2.5 16.9783 2.5 12.5Z" stroke="#F16855" stroke-width="1.5" stroke-linecap="round" stroke-linejoin="round"/>
<path d="M5.99219 11.9863C8.14729 12.0581 13.0341 11.7328 15.8137 7.32132M13.9923 6.78835L15.8678 6.48649C16.0964 6.45738 16.432 6.63785 16.5145 6.85298L17.0104 8.49142" stroke="#F16855" stroke-width="1.5" stroke-linecap="round" stroke-linejoin="round"/>
</svg>
