<svg width="25" height="25" viewBox="0 0 8 8" fill="none" xmlns="http://www.w3.org/2000/svg">
<g clip-path="url(#clip0_1_4251)">
<path d="M7.11709 3.49537H6.88535V3.48343H4.29612V4.6342H5.92201C5.68481 5.30409 5.04743 5.78497 4.29612 5.78497C3.34285 5.78497 2.56996 5.01208 2.56996 4.05881C2.56996 3.10554 3.34285 2.33266 4.29612 2.33266C4.73614 2.33266 5.13647 2.49865 5.44128 2.76981L6.25502 1.95607C5.7412 1.4772 5.0539 1.18188 4.29612 1.18188C2.70733 1.18188 1.41919 2.47003 1.41919 4.05881C1.41919 5.6476 2.70733 6.93574 4.29612 6.93574C5.8849 6.93574 7.17305 5.6476 7.17305 4.05881C7.17305 3.86591 7.15319 3.67762 7.11709 3.49537Z" fill="#FFC107"/>
<path d="M1.75098 2.71975L2.69619 3.41294C2.95195 2.77973 3.57135 2.33266 4.29619 2.33266C4.73622 2.33266 5.13654 2.49865 5.44136 2.76981L6.25509 1.95607C5.74128 1.4772 5.05398 1.18188 4.29619 1.18188C3.19117 1.18188 2.23286 1.80575 1.75098 2.71975Z" fill="#FF3D00"/>
<path d="M4.29605 6.93586C5.03916 6.93586 5.71437 6.65148 6.22488 6.18901L5.33448 5.43555C5.03593 5.66259 4.67112 5.78539 4.29605 5.78509C3.54776 5.78509 2.91239 5.30795 2.67303 4.64209L1.73486 5.36492C2.21099 6.29661 3.17793 6.93586 4.29605 6.93586Z" fill="#4CAF50"/>
<path d="M7.11711 3.49534H6.88538V3.4834H4.29614V4.63417H5.92204C5.80857 4.95299 5.60419 5.23159 5.33414 5.43554L5.33457 5.43525L6.22498 6.18872C6.16197 6.24597 7.17307 5.49725 7.17307 4.05878C7.17307 3.86589 7.15322 3.67759 7.11711 3.49534Z" fill="#1976D2"/>
</g>
<defs>
<clipPath id="clip0_1_4251">
<rect width="6.90463" height="6.90463" fill="white" transform="translate(0.84375 0.606689)"/>
</clipPath>
</defs>
</svg>
