<svg width="21" height="23" viewBox="0 0 21 23" fill="none" xmlns="http://www.w3.org/2000/svg">
<g clip-path="url(#clip0_7_26)">
<path d="M8.02734 21.5L8.02926 17.4976C8.0297 16.567 8.02992 16.1017 8.18196 15.7347C8.38508 15.2443 8.7748 14.8547 9.26524 14.6519C9.63244 14.5 10.0977 14.5 11.0283 14.5C11.9592 14.5 12.4247 14.5 12.792 14.652C13.2826 14.855 13.6723 15.2447 13.8753 15.7353C14.0273 16.1026 14.0273 16.5681 14.0273 17.499V21.5" stroke="#2B2B2B"/>
<path d="M6.11582 4.26243L5.11581 5.04298C3.59915 6.22681 2.84082 6.81873 2.43408 7.65333C2.02734 8.48792 2.02734 9.45205 2.02734 11.3803V13.4715C2.02734 17.2562 2.02734 19.1485 3.19891 20.3243C4.37049 21.5 6.2561 21.5 10.0273 21.5H12.0273C15.7985 21.5 17.6842 21.5 18.8557 20.3243C20.0273 19.1485 20.0273 17.2562 20.0273 13.4715V11.3803C20.0273 9.45205 20.0273 8.48792 19.6206 7.65333C19.2138 6.81873 18.4555 6.22681 16.9388 5.04298L15.9388 4.26243C13.5794 2.42081 12.3997 1.5 11.0273 1.5C9.65494 1.5 8.47521 2.42081 6.11582 4.26243Z" stroke="#2B2B2B" stroke-linejoin="round"/>
</g>
<defs>
<clipPath id="clip0_7_26">
<rect width="20" height="22" fill="white" transform="translate(0.765625 0.5)"/>
</clipPath>
</defs>
</svg>
