<svg width="456" height="479" viewBox="0 0 456 479" fill="none" xmlns="http://www.w3.org/2000/svg">
<path d="M199.879 96.5577C199.25 96.4253 198.612 96.3413 197.97 96.3066C197.826 96.2974 197.683 96.3406 197.567 96.4282C197.452 96.5159 197.372 96.6421 197.342 96.7838C196.539 99.898 199.854 99.9984 200.381 97.2609C200.403 97.1017 200.364 96.94 200.27 96.8092C200.177 96.6783 200.037 96.5883 199.879 96.5577ZM201.763 86.9388C200.682 86.7616 199.573 86.9051 198.573 87.3515C197.573 87.7978 196.726 88.5275 196.137 89.4503C195.983 89.678 195.917 89.954 195.952 90.2267C195.987 90.4995 196.12 90.7502 196.326 90.9319C196.532 91.1136 196.798 91.2138 197.073 91.2139C197.348 91.2139 197.613 91.1137 197.82 90.932C198.796 90.1499 200.04 89.7804 201.285 89.9023C203.897 90.279 203.822 87.2653 201.763 86.9388ZM205.806 106.453C206.143 106.408 206.453 106.241 206.677 105.985C206.901 105.729 207.025 105.4 207.025 105.059C207.025 104.719 206.901 104.39 206.677 104.133C206.453 103.877 206.143 103.711 205.806 103.665H204.626C204.76 100.944 205.121 98.2391 205.706 95.5782C205.774 95.2854 205.726 94.9773 205.572 94.7193C205.417 94.4614 205.168 94.274 204.877 94.1969C204.597 94.1257 204.301 94.1641 204.049 94.3042C203.797 94.4443 203.608 94.6754 203.521 94.9504C202.418 97.7784 201.831 100.781 201.788 103.816C201.788 104.795 201.788 106.478 203.872 106.528C204.518 106.55 205.164 106.524 205.806 106.453ZM217.459 91.8864C216.355 90.9427 215.026 90.2991 213.601 90.0176C212.176 89.7361 210.702 89.8261 209.322 90.279C209 90.5154 208.783 90.8682 208.717 91.2624C208.652 91.6565 208.742 92.0606 208.97 92.3887C210.076 93.9458 213.24 92.1375 216.505 94.3476C216.774 94.4953 217.085 94.5507 217.388 94.5053C217.692 94.46 217.973 94.3164 218.188 94.0965C218.539 93.544 218.338 92.8156 217.459 91.8864ZM212.235 108.387C211.193 109.233 209.98 109.842 208.679 110.172C207.377 110.501 206.02 110.544 204.701 110.295C204.398 110.239 204.085 110.305 203.83 110.479C203.576 110.653 203.401 110.922 203.345 111.225C203.288 111.528 203.354 111.841 203.529 112.095C203.703 112.35 203.971 112.524 204.274 112.581C206.043 112.965 207.875 112.957 209.641 112.558C211.407 112.159 213.064 111.378 214.496 110.27C216.304 108.487 214.295 106.202 212.235 108.387ZM214.219 98.0395C214.238 97.9554 214.239 97.8684 214.224 97.7837C214.209 97.6989 214.177 97.6181 214.13 97.5457C214.084 97.4733 214.023 97.4109 213.952 97.3621C213.881 97.3132 213.801 97.2788 213.717 97.2609C213.039 97.131 212.347 97.0888 211.658 97.1354C211.532 97.1365 211.409 97.1788 211.31 97.2559C211.21 97.333 211.138 97.4406 211.105 97.5623C210.276 100.174 213.114 102.309 214.219 98.0395Z" fill="white"/>
<path fill-rule="evenodd" clip-rule="evenodd" d="M208.895 131.568C205.781 131.568 205.429 132.899 205.68 136.591C206.032 141.614 206.007 141.865 210.151 141.865C214.295 141.865 214.646 141.865 214.696 136.54C214.747 131.216 213.642 131.568 208.895 131.568ZM191.315 262.566C191.315 262.713 191.373 262.853 191.476 262.957C191.58 263.061 191.721 263.119 191.867 263.119C192.014 263.119 192.154 263.061 192.258 262.957C192.361 262.853 192.42 262.713 192.42 262.566C189.476 222.27 195.488 181.823 210.025 144.125C210.402 143.146 208.895 142.417 208.543 143.422C196.904 172.897 190.685 204.233 190.185 235.919C190.185 244.81 190.586 253.701 191.315 262.566ZM58.0057 247.422C53.4097 248.075 48.8137 248.301 44.1926 248.552C41.9415 242.846 39.114 237.385 35.754 232.253C33.77 229.741 32.8909 236.949 29.0484 250.536L13.3768 254.253C12.6485 254.429 11.7192 256.262 12.6485 256.94C15.5618 259.075 21.313 262.415 24.6031 264.249C23.1464 268.393 20.4843 275.576 19.5801 279.468C19.3541 280.347 20.9363 281.98 21.8656 281.201L37.713 269.196C42.8575 272.282 48.231 274.969 53.7864 277.233C54.0081 277.334 54.2532 277.372 54.495 277.343C54.7367 277.314 54.9659 277.219 55.1576 277.069C55.3492 276.918 55.496 276.719 55.5819 276.491C55.6678 276.263 55.6896 276.016 55.6449 275.777C54.0781 270.666 52.0348 265.713 49.542 260.984C53.1334 257.317 56.4988 253.45 59.9646 249.632C60.919 248.351 59.1358 247.271 58.0057 247.422ZM47.0305 260.858C48.9141 265.178 50.9484 269.397 52.4051 273.868C50.3959 272.989 37.6125 266.032 36.834 266.559L22.6692 277.66C24.1761 272.939 25.6579 268.217 27.1648 263.521C27.642 261.938 16.8929 256.991 15.1097 255.986C17.6212 255.459 28.9982 253.475 30.5553 252.42C31.0324 252.093 34.7997 238.983 35.5782 236.598C36.834 238.582 42.5099 250.511 43.5396 250.561C47.789 250.788 52.0501 250.636 56.2728 250.109C55.017 251.39 46.6789 259.904 47.1059 260.909L47.0305 260.858ZM37.4869 196.665C38.9687 197.494 39.3454 195.234 39.1947 194.355L35.9549 180.089L47.1561 172.982C48.4872 172.128 49.9438 169.968 47.9095 169.617C42.761 168.712 37.5623 168.034 32.3886 167.256C30.8313 161.542 28.9189 155.93 26.6625 150.454C26.564 150.24 26.4064 150.06 26.2084 149.933C26.0103 149.806 25.7801 149.739 25.5449 149.739C25.3097 149.739 25.0794 149.806 24.8814 149.933C24.6833 150.06 24.5257 150.24 24.4273 150.454C22.9204 154.071 20.4089 162.183 19.2285 166.201C15.0595 166.427 5.0387 166.753 1.64821 167.331C0.89477 167.582 0.0157525 169.089 0.74408 169.843L11.4932 179.587C10.3881 184.459 9.35843 189.407 8.40407 194.329C8.22827 195.259 9.35843 196.288 10.2626 195.736C15.0595 192.873 19.781 189.859 24.5026 186.896C28.6717 190.261 33.0667 193.45 37.4869 196.665ZM13.4521 178.583C10.3211 175.359 6.9639 172.362 3.40624 169.617L19.7057 168.888C21.3382 168.888 25.0803 155.979 25.7835 153.995C27.0141 157.813 29.1488 164.368 29.9274 166.879C30.706 169.391 29.7014 168.989 32.5644 169.391L45.1218 171.45L34.3225 178.758C33.2928 179.462 36.2312 191.316 36.5828 193.149L24.9798 184.685C23.6989 183.756 12.4224 191.692 10.7146 192.823C11.5434 189.558 14.3814 181.596 13.4521 178.583ZM121.596 332.486C119.461 332.687 108.662 333.365 106.804 333.842L100.575 323.495C100.123 322.641 98.566 318.195 96.833 318.798C96.4312 318.798 96.1801 319.125 95.954 320.154C95.5271 321.912 95.1504 326.056 94.0453 336.454C89.0224 337.684 84.125 338.965 79.2276 340.522C78.4993 340.748 77.7458 342.456 78.5746 343.034C82.8468 345.825 87.331 348.276 91.9859 350.367C91.132 354.009 90.7553 357.751 90.1776 361.418C89.7507 364.281 88.5954 368.701 93.4677 364.934C97.0806 362.144 100.442 359.043 103.514 355.666C107.08 357.349 114.991 361.091 118.381 362.171C118.708 362.297 120.893 362.422 120.516 360.991C118.443 356.041 115.921 351.291 112.982 346.801C116.127 343.344 119.087 339.723 121.847 335.951C123.053 334.62 123.681 332.31 121.596 332.486ZM111.048 347.228L117.126 358.982C115.493 358.304 103.413 352.703 102.886 353.08C99.3947 356.52 96.1801 359.61 92.438 362.824C92.7896 360.489 94.9494 349.237 93.9951 348.609C89.7005 346.525 85.5565 344.44 81.4377 342.155C83.3464 341.703 95.6778 339.216 96.1047 337.885C96.9335 335.248 97.6367 327.211 98.0888 323.972C100.179 328.026 102.706 331.841 105.623 335.349C106.728 336.705 117.754 335.349 119.813 335.072C118.356 336.68 110.144 345.57 111.048 347.228ZM394.091 114.389C398.319 116.571 402.763 118.305 407.352 119.563L408.758 134.883C408.884 135.938 410.717 136.139 411.119 135.461L419.959 121.522C425.434 122.552 430.834 123.883 436.259 125.214C438.042 125.641 439.498 124.209 437.489 121.673C434.224 117.867 431.228 113.839 428.523 109.617C429.101 108.588 435.405 97.7633 435.581 96.4825C435.567 96.0723 435.416 95.6785 435.152 95.3643C434.888 95.0502 434.526 94.8337 434.124 94.7496C433.797 94.7496 421.567 99.6218 420.336 100.099C418.904 98.8935 409.135 89.802 408.708 88.8978C407.829 87.19 406.372 87.0393 406.196 88.6216L405.895 105.097L394.116 111.175C393.312 111.602 393.287 113.987 394.091 114.389ZM408.08 106.101C408.582 103.138 408.532 95.8797 408.607 92.2381C411.803 95.917 415.343 99.281 419.181 102.284C420.386 103.213 429.955 99.0191 432.215 98.0647L426.539 108.688C426.539 112.531 432.24 119.538 434.852 122.326C432.868 121.798 419.457 118.056 418.578 119.387C416.066 123.556 413.153 128.052 410.617 132.221L409.964 122.175C409.587 116.574 409.135 117.704 405.091 116.273L395.623 112.757C397.883 111.978 407.779 107.859 408.08 106.101ZM349.939 348.785C349.939 347.504 342.731 337.659 341.501 336.228C341.928 335.524 348.206 323.369 348.583 322.038C349.211 319.526 347.629 319.125 346.423 319.526C341.727 321.335 337.583 322.364 332.912 323.846C329.111 318.823 325.327 313.8 321.56 308.777C320.078 307.019 319.048 310.937 319.048 312.017C318.722 316.663 317.918 323.821 318.044 327.965L303.728 334.671C302.372 335.349 303.728 336.906 304.18 337.182L317.466 342.054C317.466 347.077 316.537 354.612 316.989 359.057C316.989 359.886 318.747 360.438 319.274 359.81C323.242 355.214 327.06 350.493 330.877 345.746C336.752 347.906 342.769 349.66 348.884 350.995C350.366 351.347 351.145 349.363 349.939 348.785ZM329.697 343.335C326.181 347.655 322.69 352.025 319.299 356.47C319.425 354.134 320.429 341.904 319.877 340.397C319.576 339.593 308.45 336.378 306.842 335.851C308.123 335.324 319.048 330.702 319.977 329.874C320.907 329.045 321.434 314.679 321.585 312.494L331.405 326.182C332.535 327.287 343.46 323.369 345.62 322.515C343.594 326.918 341.551 331.297 339.492 335.65C338.939 337.333 345.494 346.123 346.7 347.906C344.69 347.379 330.174 342.732 329.697 343.335ZM454.366 205.104L445.049 193.651C446.556 190.286 450.072 180.089 450.549 178.306C450.577 177.987 450.492 177.669 450.308 177.407C450.124 177.145 449.854 176.956 449.544 176.875C448.515 176.523 437.414 181.521 435.756 182.174C432.105 178.193 428.692 174 425.535 169.617C424.681 168.336 423.425 169.868 423.199 170.42C422.973 170.973 422.345 185.941 422.22 188.001L405.644 194.355C404.514 194.832 405.066 197.092 405.794 197.293L421.893 201.563V218.289C421.893 219.419 422.697 223.312 424.279 221.504C428.272 216.179 432.617 210.528 436.585 205.179C447.359 206.41 451.127 208.017 454.165 207.289C454.415 207.251 454.645 207.13 454.818 206.947C454.991 206.763 455.098 206.526 455.121 206.275C455.144 206.023 455.082 205.771 454.946 205.559C454.809 205.347 454.605 205.187 454.366 205.104ZM435.354 202.944C431.838 207.791 427.996 212.99 424.48 217.787C424.48 214.245 424.304 203.295 423.877 201.236C425.786 198.725 409.964 196.213 408.13 195.736C410.064 195.033 423.877 190.713 424.103 189.407C424.932 184.095 425.41 178.734 425.535 173.359C426.715 175.117 433.27 184.786 435.254 184.133C436.359 184.987 445.3 181.069 447.41 180.039C446.857 181.822 442.387 193.476 443.115 194.606C445.626 197.946 448.49 201.537 451.026 204.878C448.515 204.878 435.957 202.366 435.304 202.944H435.354ZM425.158 283.286C426.062 281.679 431.261 272.687 431.512 271.532C431.464 271.252 431.36 270.984 431.207 270.745C431.054 270.506 430.855 270.299 430.621 270.138C430.387 269.976 430.123 269.863 429.845 269.805C429.566 269.747 429.279 269.745 429 269.799C424.379 271.306 419.859 272.713 415.213 274.119C410.742 269.849 406.146 265.58 401.525 261.411C401.372 261.278 401.191 261.182 400.996 261.13C400.801 261.078 400.596 261.071 400.397 261.109C400.199 261.148 400.012 261.232 399.85 261.354C399.689 261.475 399.557 261.632 399.466 261.813C398.863 263.295 400.345 278.062 400.696 280.523L385.175 288.359C384.773 288.585 383.493 290.519 384.849 290.87L403.258 293.734C403.416 300.299 404.258 306.831 405.769 313.223C406.347 314.328 408.432 313.7 408.808 313.047L418.302 295.642C422.672 296.546 428.348 297.651 432.717 298.556C435.38 299.183 437.313 297.877 435.505 296.044C432.014 291.85 428.448 287.656 425.158 283.286ZM417.624 293.608C416.167 294.06 409.135 308.526 408.055 310.636C407.653 308.3 405.794 291.9 404.689 291.473C403.584 291.046 389.796 289.439 388.34 289.313C390.173 288.459 403.057 283.06 403.082 281.478C403.082 275.877 402.404 270.402 402.228 264.827C406.18 268.761 410.156 272.646 414.158 276.48C415.263 277.61 426.363 273.516 428.222 272.813C426.539 276.053 423.199 280.649 423.199 284.215C425.981 288.295 429.017 292.196 432.29 295.893C429.804 295.341 418.879 292.98 417.523 293.608H417.624ZM265.353 460.571C265.102 458.662 265.353 448.616 265.026 447.059C267.391 447.123 269.754 446.887 272.059 446.356C273.038 445.552 277.81 306.643 276.629 282.809C266.759 288.51 239.334 303.126 226.4 300.891C218.238 299.485 203.32 289.012 197.845 283.537C193.625 279.293 193.6 272.989 194.027 267.413L181.47 267.037C180.876 272.842 178.684 278.368 175.136 283.001C171.589 287.635 166.827 291.193 161.378 293.281C153.165 342.381 146.008 394.971 144.325 446.481C144.325 447.059 147.59 447.26 150.152 447.335C149.951 448.968 148.645 459.014 148.896 459.893C143.647 462.203 126.77 469.637 126.293 476.142C125.916 480.135 170.243 477.473 170.469 476.142C170.871 474.158 170.469 463.961 169.138 462.329C170.143 457.306 171.122 452.283 172.102 447.26C176.748 447.059 180.365 447.26 180.54 446.406C188.376 414.937 202.516 385.704 211.256 354.411C209.372 342.707 207.313 329.095 205.831 317.367C202.566 315.904 199.582 313.881 197.016 311.389C194.705 309.154 197.97 308.2 199.879 309.305C205.128 312.369 209.322 313.65 209.473 314.704C214.496 346.123 230.996 419.408 238.179 446.255C238.355 446.883 241.193 446.833 244.106 447.034C244.734 451.63 245.412 456.477 246.266 461.048C245.06 461.299 243.754 474.032 244.935 474.911C247.446 476.694 285.118 479.131 285.922 476.946C286.726 474.761 277.408 466.171 265.353 460.571ZM167.883 461.776C161.956 461.123 155.752 462.103 150.051 460.018C150.874 455.825 151.477 451.591 151.859 447.335H170.369C169.066 452.055 168.233 456.892 167.883 461.776ZM247.521 461.023C247.069 456.351 246.441 451.73 245.763 447.084C251.811 447.436 257.874 447.436 263.921 447.084C263.445 451.55 263.445 456.054 263.921 460.52C258.478 461.139 252.993 461.307 247.521 461.023Z" fill="white"/>
<path fill-rule="evenodd" clip-rule="evenodd" d="M353.43 10.0877C353.104 7.24973 351.195 8.27944 350.416 9.33426C327.21 39.7984 303.879 70.137 280.974 100.802C255.784 69.032 221.377 29.4763 191.691 1.2222C191.038 0.619444 189.556 1.2222 189.305 1.95052C177.125 38.819 165.597 80.2834 156.028 118.207C125.012 101.505 83.1956 83.046 50.0441 69.1827C49.2907 68.8813 46.4025 68.4795 46.8294 70.3128C66.645 159.596 95.552 254.328 105.723 282.633C106.427 284.642 107.004 284.868 109.064 284.592C123.881 282.884 139.201 279.87 154.019 277.409L154.622 285.546C155.099 292.076 160.222 288.911 163.839 286.45C169.611 283.073 173.891 277.635 175.819 271.231C178.079 263.395 177.803 226.552 178.33 216.154C180.138 217.033 184.182 213.467 183.052 209.373C183.869 208.623 184.403 207.614 184.563 206.516C184.724 205.418 184.5 204.298 183.931 203.346C188.075 199.88 184.107 194.832 180.264 192.998C182.273 174.765 187.321 146.586 193.047 134.506L194.479 133.928C194.345 136.88 194.463 139.837 194.831 142.769C194.854 143.05 194.949 143.321 195.106 143.556C195.263 143.79 195.478 143.981 195.729 144.109C195.981 144.237 196.261 144.299 196.543 144.289C196.826 144.278 197.101 144.196 197.342 144.05C199.585 142.534 201.732 140.882 203.771 139.102C203.525 137.078 203.466 135.035 203.596 132.999C201.356 130.949 198.815 129.254 196.061 127.976C194.353 127.273 194.579 131.04 194.529 131.844C163.186 144.125 130.235 174.087 120.943 207.339C116.573 222.985 118.13 259.452 143.546 255.233C153.366 253.575 163.412 241.771 169.239 232.454C173.332 225.873 175.09 230.972 172.252 235.518C167.303 243.095 161.299 249.928 154.421 255.81C153.902 262.075 153.759 268.365 153.994 274.646C138.925 277.158 123.429 280.146 108.185 282.482C101.479 259.879 77.2434 190.311 49.9437 71.5183C81.9398 85.2561 123.228 104.745 153.994 120.241C157.359 121.949 157.359 122.351 158.238 118.96C168.284 81.5391 179.31 40.2254 191.415 4.11039C222.381 36.3577 251.439 68.0525 279.316 103.238C279.794 103.841 281.15 104.519 281.828 103.69C305.335 73.402 328.416 42.7871 351.647 12.2727C359.031 85.3063 363.878 161.077 363.024 236.422C346.448 239.77 329.864 243.01 313.272 246.141C326.532 223.689 313.146 193.049 299.283 174.012C282.493 150.907 257.967 134.598 230.167 128.052C230.167 119.889 229.64 112.154 233.909 104.77C235.19 102.535 237.199 100.526 236.772 97.7884C242.373 93.2175 245.286 84.804 246.642 77.9477C248.953 66.3196 239.108 68.8311 232.578 70.5891C224.215 72.8243 210.201 69.5845 202.189 67.3242C197.367 65.968 185.262 62.8538 183.529 70.137C182.097 76.039 190.561 81.4889 195.257 83.0962C191.214 96.7838 187.723 123.682 201.787 126.645C201.787 127.499 201.611 128.353 201.536 129.157C202.139 129.408 202.717 129.684 203.244 129.96C203.244 128.981 203.596 125.264 202.34 124.937C193.098 121.924 193.047 109.869 193.6 102.008C194.081 95.7718 195.004 89.5779 196.363 83.473C202.44 85.0072 208.849 84.5494 214.646 82.167C218.162 80.8359 226.425 75.5618 230.092 78.5505C233.231 81.0619 225.496 84.0757 226.525 94.5234C227.203 101.505 230.996 95.5783 233.859 96.4573C234.237 96.5949 234.563 96.8488 234.788 97.1826C235.014 97.5164 235.128 97.9131 235.115 98.3158C235.341 102.284 227.053 105.097 228.283 127.223C226.048 126.62 218.539 132.045 216.731 133.351C216.999 135.516 216.94 137.708 216.555 139.856C220.171 142.091 226.45 144.728 227.103 144.326C228.233 143.648 230.217 133.954 229.866 129.985C232.603 130.613 235.315 131.367 237.978 132.221C229.439 142.267 211.582 178.105 209.171 192.496C207.39 192.323 205.596 192.638 203.981 193.408C202.366 194.178 200.991 195.373 200.004 196.866C197.166 201.462 195.232 210.78 198.974 215.124C200.205 216.357 201.752 217.226 203.445 217.636C200.345 234.897 198.557 252.368 198.095 269.9C198.095 274.194 198.271 277.434 202.139 280.975C207.564 285.998 219.719 294.964 226.852 296.044C237.601 297.877 267.764 283.738 278.312 275.952C279.358 274.944 279.993 273.584 280.095 272.135C280.433 269.739 280.492 267.311 280.271 264.902C256.595 261.71 234.547 251.077 217.308 234.538C214.797 232.027 216.931 229.138 219.669 231.625C241.494 251.415 287.177 275.249 311.011 249.205C328.859 245.856 346.699 242.374 364.531 238.757C365.736 238.531 365.535 237.125 365.535 236.07C365.993 160.569 361.95 85.1078 353.43 10.0877ZM168.535 168.084C168.812 166.854 172.529 163.715 174.161 162.409C172.654 161.429 169.565 159.194 169.841 157.737C170.369 155 177.778 144.828 179.611 142.467C180.842 140.91 183.403 142.894 182.122 144.477C179.038 148.54 176.346 152.888 174.086 157.461C177.677 160.826 178.958 160.6 179.109 162.007C179.109 164.217 174.337 167.03 172.303 168.888C172.554 174.196 172.813 179.512 173.081 184.836C173.081 186.946 170.017 186.971 169.841 184.836C169.666 182.701 168.159 169.717 168.535 168.084ZM176.924 192.069C174.942 191.776 172.921 191.913 170.997 192.471C173.006 190.045 174.417 187.18 175.115 184.108C175.819 181.596 177.275 181.998 177.627 183.907C177.947 186.647 177.708 189.424 176.924 192.069ZM179.586 194.581C182.775 196.138 185.086 198.724 183.027 202.241C182.022 201.06 178.782 197.946 177.175 198.8C177.089 198.847 177.015 198.913 176.958 198.992C176.901 199.072 176.862 199.163 176.846 199.26C176.829 199.356 176.834 199.455 176.86 199.55C176.887 199.644 176.934 199.731 176.999 199.804C177.401 200.256 185.212 203.471 182.298 207.916C181.57 206.661 179.008 204.375 177.501 204.702C177.419 204.714 177.34 204.742 177.27 204.786C177.199 204.83 177.138 204.888 177.091 204.956C177.044 205.025 177.011 205.102 176.996 205.184C176.98 205.265 176.981 205.349 176.999 205.43C177.3 206.912 181.093 206.736 181.52 210.453C181.617 211.416 181.374 212.384 180.833 213.186C180.291 213.989 179.486 214.577 178.556 214.848C179.862 212.337 176.321 210.378 174.312 212.337C174.036 212.588 174.036 213.341 175.216 212.99C175.577 212.889 175.959 212.889 176.321 212.99C173.809 219.997 165.346 215.878 163.764 209.323C162.811 205.115 163.532 200.703 165.773 197.017C170.695 194.179 173.784 191.843 179.586 194.681V194.581ZM132.596 204.626C132.293 204.76 131.952 204.783 131.633 204.689C131.315 204.596 131.04 204.393 130.856 204.117C130.673 203.84 130.593 203.508 130.631 203.178C130.669 202.849 130.823 202.543 131.064 202.316C138.027 197.254 145.949 193.665 154.346 191.768C156.057 184.91 158.29 178.193 161.026 171.676C161.654 170.144 164.191 171.174 163.538 172.68C161.273 178.723 159.402 184.906 157.937 191.19C159.059 191.073 160.164 190.998 161.252 190.964C162.633 190.964 163.161 193.124 161.679 193.475C151.279 195.099 141.355 198.964 132.596 204.802V204.626ZM170.62 226.175C157.862 224.09 149.951 209.398 160.85 196.992L164.467 196.866C160.951 201.186 160.574 211.633 166.2 216.28C167.165 217.093 168.298 217.683 169.518 218.009C170.738 218.335 172.015 218.387 173.257 218.163C172.72 220.991 171.834 223.741 170.62 226.351V226.175ZM219.845 188.226C222.055 185.188 230.594 173.158 232.804 170.646C231.674 169.516 228.936 166.552 229.313 164.744C229.367 164.461 229.499 164.198 229.695 163.985C229.89 163.772 230.14 163.617 230.418 163.539L238.48 160.424L243.503 140.935C243.535 140.725 243.611 140.524 243.725 140.344C243.839 140.165 243.989 140.011 244.166 139.893C244.343 139.775 244.542 139.695 244.752 139.658C244.961 139.621 245.176 139.628 245.383 139.679C245.59 139.73 245.783 139.823 245.952 139.953C246.12 140.082 246.26 140.246 246.362 140.433C246.464 140.619 246.526 140.825 246.544 141.037C246.562 141.249 246.535 141.463 246.466 141.664C245.688 144.979 243.026 161.454 240.866 163.112C238.658 164.409 236.272 165.373 233.783 165.975C235.692 167.683 237.827 169.441 236.446 171.776C235.793 172.957 224.24 187.975 222.406 190.286C221.226 191.843 218.69 189.985 219.845 188.402V188.226ZM212.16 186.82C217.007 178.231 216.756 185.79 216.329 190.01C216.216 191.306 216.396 192.61 216.856 193.827C214.821 192.975 212.655 192.474 210.452 192.345C210.628 190.404 211.21 188.522 212.16 186.82ZM200.23 213.844C196.89 210.855 199.226 201.11 201.662 197.494C204.726 193.023 211.306 193.023 215.801 194.982C212.395 197.44 209.79 200.848 208.311 204.779C206.832 208.71 206.546 212.99 207.488 217.083C204.886 216.472 202.423 215.373 200.23 213.844ZM216.58 226.049L209.045 218.515C206.534 207.138 211.909 197.971 218.941 195.208C221.301 195.384 223.964 195.208 226.324 195.208C219.845 203.12 214.395 215.526 216.454 226.049H216.58ZM290.643 207.54C272.837 198.509 253.146 193.819 233.181 193.852C231.423 193.852 231.573 191.341 233.181 191.165C240.603 190.825 248.04 191.229 255.382 192.37C255.131 191.441 254.001 187.197 253.674 186.016C253.534 185.683 253.533 185.308 253.669 184.974C253.806 184.64 254.07 184.373 254.403 184.233C254.736 184.093 255.111 184.092 255.445 184.228C255.779 184.365 256.046 184.629 256.186 184.962C257.398 187.564 258.373 190.271 259.099 193.049C270.642 195.262 281.697 199.514 291.748 205.606C293.33 206.309 292.025 208.218 290.643 207.54Z" fill="white"/>
</svg>
