<svg width="20" height="22" viewBox="0 0 20 22" fill="none" xmlns="http://www.w3.org/2000/svg">
<path d="M7.26172 21L7.26364 16.9976C7.26408 16.067 7.2643 15.6017 7.41634 15.2347C7.61946 14.7443 8.00918 14.3547 8.49962 14.1519C8.86682 14 9.33212 14 10.2627 14C11.1936 14 11.6591 14 12.0264 14.152C12.517 14.355 12.9067 14.7447 13.1097 15.2353C13.2617 15.6026 13.2617 16.0681 13.2617 16.999V21" stroke="#453116"/>
<path d="M5.3502 3.76243L4.35019 4.54298C2.83353 5.72681 2.0752 6.31873 1.66846 7.15333C1.26172 7.98792 1.26172 8.95205 1.26172 10.8803V12.9715C1.26172 16.7562 1.26172 18.6485 2.43329 19.8243C3.60487 21 5.49048 21 9.26172 21H11.2617C15.0329 21 16.9186 21 18.0901 19.8243C19.2617 18.6485 19.2617 16.7562 19.2617 12.9715V10.8803C19.2617 8.95205 19.2617 7.98792 18.855 7.15333C18.4482 6.31873 17.6899 5.72681 16.1732 4.54298L15.1732 3.76243C12.8138 1.92081 11.6341 1 10.2617 1C8.88932 1 7.70959 1.92081 5.3502 3.76243Z" stroke="#453116" stroke-linejoin="round"/>
</svg>
