<svg width="21" height="24" viewBox="0 0 21 24" fill="none" xmlns="http://www.w3.org/2000/svg">
<mask id="mask0_253_241" style="mask-type:luminance" maskUnits="userSpaceOnUse" x="0" y="1" width="21" height="22">
<path d="M20.7656 1H0.765625V23H20.7656V1Z" fill="white"/>
</mask>
<g mask="url(#mask0_253_241)">
<path d="M8.02734 22L8.02926 17.9976C8.0297 17.067 8.02992 16.6017 8.18196 16.2347C8.38508 15.7443 8.7748 15.3547 9.26524 15.1519C9.63244 15 10.0977 15 11.0283 15C11.9592 15 12.4247 15 12.792 15.152C13.2826 15.355 13.6723 15.7447 13.8753 16.2353C14.0273 16.6026 14.0273 17.0681 14.0273 17.999V22" stroke="#F16855"/>
<path d="M6.11582 4.76243L5.11581 5.54298C3.59915 6.72681 2.84082 7.31873 2.43408 8.15333C2.02734 8.98792 2.02734 9.95205 2.02734 11.8803V13.9715C2.02734 17.7562 2.02734 19.6485 3.19891 20.8243C4.37049 22 6.2561 22 10.0273 22H12.0273C15.7985 22 17.6842 22 18.8557 20.8243C20.0273 19.6485 20.0273 17.7562 20.0273 13.9715V11.8803C20.0273 9.95205 20.0273 8.98792 19.6206 8.15333C19.2138 7.31873 18.4555 6.72681 16.9388 5.54298L15.9388 4.76243C13.5794 2.92081 12.3997 2 11.0273 2C9.65494 2 8.47521 2.92081 6.11582 4.76243Z" stroke="#F16855" stroke-linejoin="round"/>
</g>
</svg>
