<svg width="120" height="106" viewBox="0 0 120 106" fill="none" xmlns="http://www.w3.org/2000/svg">
<path d="M117.5 71.5V88C117.5 96.2843 110.784 103 102.5 103H17.5C9.21573 103 2.5 96.2843 2.5 88V18C2.5 9.71573 9.21573 3 17.5 3H102.5C110.784 3 117.5 9.71573 117.5 18V51.5M77.3934 42.1066L63 56.5C58.8579 60.6421 52.1421 60.6421 48 56.5V56.5C43.8579 52.3579 37.1421 52.3579 33 56.5L20.2102 69.2898C18.1547 71.3453 17 74.133 17 77.0398V77.0398C17 83.093 21.907 88 27.9602 88H88C96.2843 88 103 81.2843 103 73V52.7132C103 39.3496 86.8429 32.6571 77.3934 42.1066Z" stroke="black" stroke-width="5" stroke-linecap="round"/>
<circle cx="39.5" cy="29.5" r="10" stroke="black" stroke-width="5"/>
</svg>
