<svg width="22" height="23" viewBox="0 0 22 23" fill="none" xmlns="http://www.w3.org/2000/svg">
<g clip-path="url(#clip0_7_65)">
<path d="M1.55273 11.5598C1.55273 6.96659 1.55273 4.67 2.97965 3.24308C4.40658 1.81616 6.70316 1.81616 11.2963 1.81616C15.8895 1.81616 18.1861 1.81616 19.6131 3.24308C21.0399 4.67 21.0399 6.96659 21.0399 11.5598C21.0399 16.1529 21.0399 18.4495 19.6131 19.8765C18.1861 21.3034 15.8895 21.3034 11.2963 21.3034C6.70316 21.3034 4.40658 21.3034 2.97965 19.8765C1.55273 18.4495 1.55273 16.1529 1.55273 11.5598Z" stroke="#2B2B2B"/>
<path d="M15.9115 8.48293C16.7611 8.48293 17.4499 7.79414 17.4499 6.94447C17.4499 6.0948 16.7611 5.40601 15.9115 5.40601C15.0618 5.40601 14.373 6.0948 14.373 6.94447C14.373 7.79414 15.0618 8.48293 15.9115 8.48293Z" stroke="#2B2B2B"/>
<path d="M15.3997 21.8164C14.7643 19.5343 13.2813 17.4904 11.1705 16.0053C8.89473 14.404 6.03731 13.5565 3.10814 13.6141C2.76034 13.6132 2.41283 13.6243 2.06641 13.6473" stroke="#2B2B2B" stroke-linejoin="round"/>
<path d="M12.3223 17.7136C14.0675 16.3529 15.9475 15.6549 17.8466 15.6624C18.9236 15.6613 19.9954 15.8896 21.0403 16.341" stroke="#2B2B2B" stroke-linejoin="round"/>
</g>
<defs>
<clipPath id="clip0_7_65">
<rect width="21" height="22" fill="white" transform="translate(0.707031 0.5)"/>
</clipPath>
</defs>
</svg>
