<svg width="21" height="22" viewBox="0 0 21 22" fill="none" xmlns="http://www.w3.org/2000/svg">
<path d="M0.845947 11.0599C0.845947 6.46671 0.845947 4.17012 2.27286 2.7432C3.69979 1.31628 5.99637 1.31628 10.5895 1.31628C15.1827 1.31628 17.4793 1.31628 18.9063 2.7432C20.3331 4.17012 20.3331 6.46671 20.3331 11.0599C20.3331 15.653 20.3331 17.9496 18.9063 19.3766C17.4793 20.8035 15.1827 20.8035 10.5895 20.8035C5.99637 20.8035 3.69979 20.8035 2.27286 19.3766C0.845947 17.9496 0.845947 15.653 0.845947 11.0599Z" stroke="#453116"/>
<path d="M15.205 7.98293C16.0546 7.98293 16.7434 7.29414 16.7434 6.44447C16.7434 5.5948 16.0546 4.90601 15.205 4.90601C14.3553 4.90601 13.6665 5.5948 13.6665 6.44447C13.6665 7.29414 14.3553 7.98293 15.205 7.98293Z" stroke="#453116"/>
<path d="M14.6922 21.3163C14.0568 19.0342 12.5738 16.9903 10.463 15.5052C8.18721 13.9039 5.32979 13.0564 2.40062 13.114C2.05282 13.1131 1.70531 13.1242 1.35889 13.1472" stroke="#453116" stroke-linejoin="round"/>
<path d="M11.6152 17.2137C13.3604 15.853 15.2404 15.155 17.1395 15.1625C18.2165 15.1614 19.2883 15.3897 20.3332 15.8411" stroke="#453116" stroke-linejoin="round"/>
</svg>
