<svg width="23" height="21" viewBox="0 0 23 21" fill="none" xmlns="http://www.w3.org/2000/svg">
<path d="M12.373 19.7162H11.373C6.659 19.7162 4.30198 19.7162 2.83752 18.2517C1.37305 16.7873 1.37305 14.4302 1.37305 9.71619V6.66046C1.37305 4.84399 1.37305 3.93575 1.75337 3.25425C2.02447 2.76846 2.42532 2.36761 2.91111 2.09651C3.59261 1.71619 4.50085 1.71619 6.31732 1.71619C7.48107 1.71619 8.06295 1.71619 8.57231 1.9072C9.73525 2.34331 10.2148 3.39977 10.7396 4.44932L11.373 5.71619M7.37305 5.71619H16.123C18.2297 5.71619 19.283 5.71619 20.0397 6.22178C20.3673 6.44066 20.6485 6.72191 20.8674 7.04948C21.3526 7.77561 21.3722 8.77499 21.373 10.7162" stroke="#555555" stroke-width="1.5" stroke-linecap="round"/>
<path d="M17.373 11.7162V19.7162M21.373 15.7162H13.373" stroke="#555555" stroke-width="1.5" stroke-linecap="round" stroke-linejoin="round"/>
</svg>
