<svg width="26" height="22" viewBox="0 0 26 22" fill="none" xmlns="http://www.w3.org/2000/svg">
<path d="M13.1214 19.684C11.5537 20.4162 9.49442 20.8605 7.23904 20.8605C5.98502 20.8605 4.79162 20.7232 3.70963 20.4753C1.84878 20.0491 1.35669 18.9541 1.35669 17.1969V4.52397C1.35669 3.36534 2.58025 2.56957 3.70963 2.82824C4.79162 3.07606 5.98502 3.21341 7.23904 3.21341C9.49442 3.21341 11.5537 2.76913 13.1214 2.03694C14.689 1.30476 16.7483 0.860474 19.0037 0.860474C20.2577 0.860474 21.4512 0.997827 22.5332 1.24565C24.394 1.67186 24.8861 2.76678 24.8861 4.52397V17.1969C24.8861 18.3557 23.6626 19.1514 22.5332 18.8927C21.4512 18.6448 20.2577 18.5075 19.0037 18.5075C16.7483 18.5075 14.689 18.9518 13.1214 19.684Z" stroke="#453116"/>
<path d="M16.0625 10.8605C16.0625 12.4848 14.7457 13.8017 13.1214 13.8017C11.497 13.8017 10.1802 12.4848 10.1802 10.8605C10.1802 9.23613 11.497 7.91931 13.1214 7.91931C14.7457 7.91931 16.0625 9.23613 16.0625 10.8605Z" stroke="#453116"/>
<path d="M5.47437 12.037V12.0476" stroke="#453116" stroke-linecap="round" stroke-linejoin="round"/>
<path d="M20.7686 9.6748V9.68539" stroke="#453116" stroke-linecap="round" stroke-linejoin="round"/>
</svg>
