<svg width="27" height="23" viewBox="0 0 27 23" fill="none" xmlns="http://www.w3.org/2000/svg">
<g clip-path="url(#clip0_7_51)">
<path d="M13.7706 20.1841C12.2029 20.9163 10.1436 21.3606 7.88821 21.3606C6.63419 21.3606 5.44079 21.2233 4.3588 20.9754C2.49795 20.5492 2.00586 19.4542 2.00586 17.697V5.02409C2.00586 3.86546 3.22942 3.06969 4.3588 3.32836C5.44079 3.57618 6.63419 3.71353 7.88821 3.71353C10.1436 3.71353 12.2029 3.26925 13.7706 2.53706C15.3382 1.80488 17.3975 1.3606 19.6529 1.3606C20.9069 1.3606 22.1004 1.49795 23.1824 1.74577C25.0432 2.17198 25.5353 3.2669 25.5353 5.02409V17.697C25.5353 18.8558 24.3118 19.6515 23.1824 19.3928C22.1004 19.1449 20.9069 19.0076 19.6529 19.0076C17.3975 19.0076 15.3382 19.4519 13.7706 20.1841Z" stroke="#2B2B2B"/>
<path d="M16.7104 11.3604C16.7104 12.9847 15.3936 14.3016 13.7693 14.3016C12.1449 14.3016 10.8281 12.9847 10.8281 11.3604C10.8281 9.73601 12.1449 8.41919 13.7693 8.41919C15.3936 8.41919 16.7104 9.73601 16.7104 11.3604Z" stroke="#2B2B2B"/>
<path d="M6.12305 12.5371V12.5477" stroke="#2B2B2B" stroke-linecap="round" stroke-linejoin="round"/>
<path d="M21.418 10.1748V10.1854" stroke="#2B2B2B" stroke-linecap="round" stroke-linejoin="round"/>
</g>
<defs>
<clipPath id="clip0_7_51">
<rect width="26" height="22" fill="white" transform="translate(0.648438 0.5)"/>
</clipPath>
</defs>
</svg>
