<svg width="28" height="28" viewBox="0 0 28 28" fill="none" xmlns="http://www.w3.org/2000/svg">
<path d="M14.0007 8.75008C14.0007 11.0052 12.1725 12.8334 9.91732 12.8334C7.66215 12.8334 5.83398 11.0052 5.83398 8.75008C5.83398 6.49491 7.66215 4.66675 9.91732 4.66675C12.1725 4.66675 14.0007 6.49491 14.0007 8.75008Z" stroke="#2B2B2B" stroke-width="1.5"/>
<path d="M15.75 12.8334C18.0052 12.8334 19.8333 11.0052 19.8333 8.75008C19.8333 6.49491 18.0052 4.66675 15.75 4.66675" stroke="#2B2B2B" stroke-width="1.5" stroke-linecap="round"/>
<path d="M15.334 23.3333H4.50065C3.30403 23.3333 2.33398 22.4378 2.33398 21.3332C2.33398 18.5719 4.75911 16.3333 7.75065 16.3333H12.0839C13.3033 16.3333 14.4287 16.7052 15.334 17.3329" stroke="#2B2B2B" stroke-width="1.5" stroke-linecap="round" stroke-linejoin="round"/>
<path d="M22.166 16.3333V23.3333M25.666 19.8333H18.666" stroke="#2B2B2B" stroke-width="1.5" stroke-linecap="round"/>
</svg>
