<svg width="28" height="29" viewBox="0 0 28 29" fill="none" xmlns="http://www.w3.org/2000/svg">
<path d="M14.0007 9.25032C14.0007 11.5054 12.1725 13.3336 9.91732 13.3336C7.66215 13.3336 5.83398 11.5054 5.83398 9.25032C5.83398 6.99515 7.66215 5.16699 9.91732 5.16699C12.1725 5.16699 14.0007 6.99515 14.0007 9.25032Z" stroke="#F16855" stroke-width="1.5"/>
<path d="M15.75 13.3336C18.0052 13.3336 19.8333 11.5054 19.8333 9.25032C19.8333 6.99515 18.0052 5.16699 15.75 5.16699" stroke="#F16855" stroke-width="1.5" stroke-linecap="round"/>
<path d="M15.334 23.8335H4.50065C3.30403 23.8335 2.33398 22.938 2.33398 21.8334C2.33398 19.0721 4.75911 16.8335 7.75065 16.8335H12.0839C13.3033 16.8335 14.4287 17.2054 15.334 17.8331" stroke="#F16855" stroke-width="1.5" stroke-linecap="round" stroke-linejoin="round"/>
<path d="M22.166 16.8335V23.8335M25.666 20.3335H18.666" stroke="#F16855" stroke-width="1.5" stroke-linecap="round"/>
</svg>
