<svg width="28" height="28" viewBox="0 0 28 28" fill="none" xmlns="http://www.w3.org/2000/svg">
<path d="M6.04406 17.8457C4.57689 18.7056 0.730065 20.4616 3.07304 22.6589C4.21757 23.7322 5.49227 24.4999 7.09488 24.4999H16.2397C17.8424 24.4999 19.1171 23.7322 20.2616 22.6589C22.6046 20.4616 18.7577 18.7056 17.2905 17.8457C13.85 15.8291 9.48455 15.8291 6.04406 17.8457Z" stroke="#2B2B2B" stroke-width="1.5" stroke-linecap="round" stroke-linejoin="round"/>
<path d="M16.3333 8.16667C16.3333 10.744 14.2439 12.8333 11.6667 12.8333C9.08934 12.8333 7 10.744 7 8.16667C7 5.58934 9.08934 3.5 11.6667 3.5C14.2439 3.5 16.3333 5.58934 16.3333 8.16667Z" stroke="#2B2B2B" stroke-width="1.5"/>
<path d="M19.834 6.66667C19.834 6.66667 21.0007 7.27502 21.584 8.16667C21.584 8.16667 23.334 4.66667 25.6673 3.5" stroke="#2B2B2B" stroke-width="1.5" stroke-linecap="round" stroke-linejoin="round"/>
</svg>
