<svg width="26" height="22" viewBox="0 0 26 22" fill="none" xmlns="http://www.w3.org/2000/svg">
<path d="M20.8945 19.4013H21.4547C22.7688 19.4013 23.8141 18.8025 24.7526 17.9654C27.1367 15.8385 21.5322 13.687 19.619 13.687M17.3333 2.33702C17.5928 2.28554 17.8623 2.25842 18.1387 2.25842C20.2186 2.25842 21.9047 3.79345 21.9047 5.68699C21.9047 7.58054 20.2186 9.11557 18.1387 9.11557C17.8623 9.11557 17.5928 9.08848 17.3333 9.03694" stroke="#453116" stroke-linecap="round"/>
<path d="M4.74047 14.957C3.39307 15.679 -0.139732 17.1534 2.01197 18.9983C3.06307 19.8996 4.23372 20.5442 5.70551 20.5442H14.1039C15.5757 20.5442 16.7463 19.8996 17.7974 18.9983C19.9491 17.1534 16.4163 15.679 15.0689 14.957C11.9093 13.2637 7.9001 13.2637 4.74047 14.957Z" stroke="#453116"/>
<path d="M14.4761 5.11562C14.4761 7.64035 12.4294 9.68705 9.90468 9.68705C7.37995 9.68705 5.33325 7.64035 5.33325 5.11562C5.33325 2.59089 7.37995 0.544189 9.90468 0.544189C12.4294 0.544189 14.4761 2.59089 14.4761 5.11562Z" stroke="#453116"/>
</svg>
