<svg width="27" height="23" viewBox="0 0 27 23" fill="none" xmlns="http://www.w3.org/2000/svg">
<g clip-path="url(#clip0_7_76)">
<path d="M21.4811 19.9012H22.0413C23.3554 19.9012 24.4007 19.3024 25.3392 18.4653C27.7233 16.3384 22.1188 14.1869 20.2056 14.1869M17.9199 2.8369C18.1794 2.78542 18.4489 2.7583 18.7253 2.7583C20.8052 2.7583 22.4913 4.29333 22.4913 6.18687C22.4913 8.08042 20.8052 9.61545 18.7253 9.61545C18.4489 9.61545 18.1794 9.58836 17.9199 9.53682" stroke="#2B2B2B" stroke-linecap="round"/>
<path d="M5.32714 15.457C3.97974 16.179 0.44694 17.6534 2.59864 19.4983C3.64974 20.3996 4.82039 21.0442 6.29218 21.0442H14.6906C16.1624 21.0442 17.333 20.3996 18.3841 19.4983C20.5358 17.6534 17.003 16.179 15.6556 15.457C12.496 13.7637 8.48677 13.7637 5.32714 15.457Z" stroke="#2B2B2B"/>
<path d="M15.0628 5.61562C15.0628 8.14035 13.0161 10.187 10.4914 10.187C7.96662 10.187 5.91992 8.14035 5.91992 5.61562C5.91992 3.09089 7.96662 1.04419 10.4914 1.04419C13.0161 1.04419 15.0628 3.09089 15.0628 5.61562Z" stroke="#2B2B2B"/>
</g>
<defs>
<clipPath id="clip0_7_76">
<rect width="26" height="22" fill="white" transform="translate(0.585938 0.5)"/>
</clipPath>
</defs>
</svg>
