<svg width="28" height="29" viewBox="0 0 28 29" fill="none" xmlns="http://www.w3.org/2000/svg">
<path d="M6.04406 18.3455C4.57689 19.2054 0.730066 20.9614 3.07304 23.1587C4.21757 24.232 5.49227 24.9997 7.09488 24.9997H16.2397C17.8424 24.9997 19.1171 24.232 20.2616 23.1587C22.6046 20.9614 18.7577 19.2054 17.2905 18.3455C13.85 16.3289 9.48455 16.3289 6.04406 18.3455Z" stroke="#F16855" stroke-width="1.5" stroke-linecap="round" stroke-linejoin="round"/>
<path d="M16.3333 8.66667C16.3333 11.244 14.2439 13.3333 11.6667 13.3333C9.08934 13.3333 7 11.244 7 8.66667C7 6.08934 9.08934 4 11.6667 4C14.2439 4 16.3333 6.08934 16.3333 8.66667Z" stroke="#F16855" stroke-width="1.5"/>
<path d="M19.834 7.16667C19.834 7.16667 21.0007 7.77502 21.584 8.66667C21.584 8.66667 23.334 5.16667 25.6673 4" stroke="#F16855" stroke-width="1.5" stroke-linecap="round" stroke-linejoin="round"/>
</svg>
