<svg width="22" height="22" viewBox="0 0 22 22" fill="none" xmlns="http://www.w3.org/2000/svg">
<g clip-path="url(#clip0_7_86)">
<path d="M12.373 9.66102L17.9286 4.10547" stroke="#2B2B2B"/>
<path d="M19.0406 5.21652L16.8184 2.9943L19.5962 1.32764L20.7073 2.43875L19.0406 5.21652Z" stroke="#2B2B2B" stroke-linejoin="round"/>
<path d="M2.40075 7.41096C1.27745 6.28767 0.984995 4.64817 1.52336 3.25608L3.10336 4.83608H5.32558V2.61386L3.74558 1.03386C5.13767 0.495492 6.77717 0.787947 7.90046 1.91125C9.02417 3.03496 9.31649 4.67526 8.77725 6.06769L15.9663 13.2566C17.3587 12.7174 18.9989 13.0097 20.1227 14.1334C21.2459 15.2567 21.5385 16.8962 21 18.2883L19.42 16.7083H17.1978V18.9305L18.7778 20.5105C17.3857 21.049 15.7463 20.7564 14.6229 19.6332C13.5 18.5103 13.2074 16.8716 13.7449 15.4799L6.55407 8.28896C5.16231 8.82654 3.52362 8.53383 2.40075 7.41096Z" stroke="#2B2B2B" stroke-linejoin="round"/>
<path d="M11.4864 13.5498L5.2597 19.7766C4.67323 20.3631 3.7224 20.3631 3.13593 19.7766L2.25624 18.8969C1.66979 18.3105 1.66979 17.3596 2.25624 16.7732L8.483 10.5464" stroke="#2B2B2B" stroke-linejoin="round"/>
</g>
<defs>
<clipPath id="clip0_7_86">
<rect width="22" height="22" fill="white"/>
</clipPath>
</defs>
</svg>
