<svg width="22" height="22" viewBox="0 0 22 22" fill="none" xmlns="http://www.w3.org/2000/svg">
<path d="M12.3728 9.66102L17.9284 4.10547" stroke="#453116"/>
<path d="M19.0396 5.21652L16.8174 2.9943L19.5952 1.32764L20.7063 2.43875L19.0396 5.21652Z" stroke="#453116" stroke-linejoin="round"/>
<path d="M2.40075 7.41084C1.27745 6.28755 0.984995 4.64805 1.52336 3.25596L3.10336 4.83596H5.32558V2.61374L3.74558 1.03374C5.13767 0.495371 6.77717 0.787826 7.90046 1.91113C9.02417 3.03484 9.31649 4.67514 8.77725 6.06757L15.9663 13.2565C17.3587 12.7173 18.9989 13.0096 20.1227 14.1333C21.2459 15.2566 21.5385 16.8961 21 18.2882L19.42 16.7082H17.1978V18.9304L18.7778 20.5104C17.3857 21.0489 15.7463 20.7563 14.6229 19.6331C13.5 18.5102 13.2074 16.8715 13.7449 15.4798L6.55407 8.28884C5.16231 8.82642 3.52362 8.53371 2.40075 7.41084Z" stroke="#453116" stroke-linejoin="round"/>
<path d="M11.4874 13.5498L5.26068 19.7766C4.67421 20.3631 3.72338 20.3631 3.13691 19.7766L2.25722 18.8969C1.67077 18.3105 1.67077 17.3596 2.25722 16.7732L8.48398 10.5464" stroke="#453116" stroke-linejoin="round"/>
</svg>
