<svg width="22" height="23" viewBox="0 0 22 23" fill="none" xmlns="http://www.w3.org/2000/svg">
<g clip-path="url(#clip0_253_311)">
<mask id="mask0_253_311" style="mask-type:luminance" maskUnits="userSpaceOnUse" x="0" y="0" width="22" height="23">
<path d="M22 0.5H0V22.5H22V0.5Z" fill="white"/>
</mask>
<g mask="url(#mask0_253_311)">
<path d="M12.373 10.161L17.9286 4.60547" stroke="#2c2c2c"/>
<path d="M19.0406 5.71652L16.8184 3.4943L19.5962 1.82764L20.7073 2.93875L19.0406 5.71652Z" stroke="#2c2c2c" stroke-linejoin="round"/>
<path d="M2.40075 7.91072C1.27745 6.78743 0.984995 5.14793 1.52336 3.75584L3.10336 5.33584H5.32558V3.11362L3.74558 1.53362C5.13767 0.995248 6.77717 1.2877 7.90046 2.41101C9.02417 3.53472 9.31649 5.17502 8.77725 6.56745L15.9663 13.7564C17.3587 13.2172 18.9989 13.5095 20.1227 14.6332C21.2459 15.7565 21.5385 17.396 21 18.7881L19.42 17.2081H17.1978V19.4303L18.7778 21.0103C17.3857 21.5488 15.7463 21.2562 14.6229 20.133C13.5 19.0101 13.2074 17.3714 13.7449 15.9797L6.55407 8.78872C5.16231 9.3263 3.52362 9.03359 2.40075 7.91072Z" stroke="#2c2c2c" stroke-linejoin="round"/>
<path d="M11.4864 14.0498L5.2597 20.2766C4.67323 20.8631 3.7224 20.8631 3.13593 20.2766L2.25624 19.3969C1.66979 18.8105 1.66979 17.8596 2.25624 17.2732L8.483 11.0464" stroke="#2c2c2c" stroke-linejoin="round"/>
</g>
</g>
<defs>
<clipPath id="clip0_253_311">
<rect width="22" height="22" fill="white" transform="translate(0 0.5)"/>
</clipPath>
</defs>
</svg>
