<svg width="23" height="22" viewBox="0 0 23 22" fill="none" xmlns="http://www.w3.org/2000/svg">
<path d="M2.37671 9.505V14.7702C2.37671 17.7485 2.37671 19.2377 3.30165 20.163C4.2266 21.0884 5.71527 21.0884 8.69263 21.0884H15.0086C17.9859 21.0884 19.4745 21.0884 20.3995 20.163C21.3245 19.2377 21.3245 17.7485 21.3245 14.7702V9.505" stroke="#453116" stroke-linecap="round"/>
<path d="M15.0085 16.3441C14.2884 16.9833 13.142 17.3968 11.8506 17.3968C10.5592 17.3968 9.41274 16.9833 8.69263 16.3441" stroke="#453116" stroke-linecap="round"/>
<path d="M9.88938 7.31797C9.59255 8.38999 8.51301 10.2392 6.46191 10.5072C4.65088 10.7439 3.2773 9.95331 2.92645 9.62278C2.53962 9.35477 1.65801 8.4972 1.44211 7.96119C1.2262 7.42517 1.47809 6.26382 1.65801 5.79034L2.37725 3.70779C2.55284 3.18471 2.96386 1.94752 3.38525 1.52906C3.80665 1.1106 4.65981 1.09239 5.01096 1.09239H12.3853C14.2835 1.11921 18.4339 1.07546 19.2543 1.0924C20.0747 1.10933 20.5678 1.79707 20.7117 2.09187C21.9358 5.05701 22.412 6.75516 22.412 7.47878C22.2522 8.25071 21.5909 9.70625 19.2543 10.3465C16.8258 11.0118 15.4491 9.71762 15.0172 9.22077M8.89085 9.22077C9.2327 9.64067 10.3051 10.4858 11.8595 10.5072C13.4141 10.5287 14.7563 9.44414 15.2331 8.89921C15.368 8.7384 15.6595 8.26135 15.9618 7.31797" stroke="#453116" stroke-linecap="round" stroke-linejoin="round"/>
</svg>
