<svg width="23" height="23" viewBox="0 0 23 23" fill="none" xmlns="http://www.w3.org/2000/svg">
<g clip-path="url(#clip0_253_165)">
<mask id="mask0_253_165" style="mask-type:luminance" maskUnits="userSpaceOnUse" x="0" y="0" width="23" height="23">
<path d="M23 0.5H0V22.5H23V0.5Z" fill="white"/>
</mask>
<g mask="url(#mask0_253_165)">
<path d="M2.37695 10.0049V15.2701C2.37695 18.2484 2.37695 19.7376 3.30189 20.6629C4.22684 21.5883 5.71551 21.5883 8.69287 21.5883H15.0088C17.9861 21.5883 19.4747 21.5883 20.3997 20.6629C21.3247 19.7376 21.3247 18.2484 21.3247 15.2701V10.0049" stroke="#F16855" stroke-linecap="round"/>
<path d="M15.0092 16.8442C14.2891 17.4834 13.1427 17.8969 11.8513 17.8969C10.5599 17.8969 9.41347 17.4834 8.69336 16.8442" stroke="#F16855" stroke-linecap="round"/>
<path d="M9.88986 7.81797C9.59303 8.88999 8.51349 10.7392 6.46239 11.0072C4.65136 11.2439 3.27778 10.4533 2.92693 10.1228C2.5401 9.85477 1.65849 8.9972 1.44259 8.46119C1.22668 7.92517 1.47857 6.76382 1.65849 6.29034L2.37773 4.20779C2.55332 3.68471 2.96436 2.44752 3.38575 2.02906C3.80715 1.6106 4.6603 1.59239 5.01145 1.59239H12.3858C14.284 1.61921 18.4344 1.57546 19.2548 1.5924C20.0752 1.60933 20.5683 2.29707 20.7122 2.59187C21.9363 5.55701 22.4125 7.25516 22.4125 7.97878C22.2527 8.75071 21.5914 10.2063 19.2548 10.8465C16.8263 11.5118 15.4496 10.2176 15.0177 9.72077M8.89135 9.72077C9.2332 10.1407 10.3056 10.9858 11.86 11.0072C13.4146 11.0287 14.7568 9.94414 15.2336 9.39921C15.3685 9.2384 15.66 8.76135 15.9623 7.81797" stroke="#F16855" stroke-linecap="round" stroke-linejoin="round"/>
</g>
</g>
<defs>
<clipPath id="clip0_253_165">
<rect width="23" height="22" fill="white" transform="translate(0 0.5)"/>
</clipPath>
</defs>
</svg>
