<svg width="23" height="22" viewBox="0 0 23 22" fill="none" xmlns="http://www.w3.org/2000/svg">
<g clip-path="url(#clip0_7_91)">
<path d="M2.37695 9.50488V14.7701C2.37695 17.7484 2.37695 19.2376 3.30189 20.1629C4.22684 21.0883 5.71551 21.0883 8.69287 21.0883H15.0088C17.9861 21.0883 19.4747 21.0883 20.3997 20.1629C21.3247 19.2376 21.3247 17.7484 21.3247 14.7701V9.50488" stroke="#2B2B2B" stroke-linecap="round"/>
<path d="M15.0092 16.344C14.2891 16.9832 13.1427 17.3967 11.8513 17.3967C10.5599 17.3967 9.41347 16.9832 8.69336 16.344" stroke="#2B2B2B" stroke-linecap="round"/>
<path d="M9.88986 7.31797C9.59303 8.38999 8.51349 10.2392 6.46239 10.5072C4.65136 10.7439 3.27778 9.95331 2.92693 9.62278C2.5401 9.35477 1.65849 8.4972 1.44259 7.96119C1.22668 7.42517 1.47857 6.26382 1.65849 5.79034L2.37773 3.70779C2.55332 3.18471 2.96435 1.94752 3.38574 1.52906C3.80714 1.1106 4.6603 1.09239 5.01145 1.09239H12.3858C14.284 1.11921 18.4344 1.07546 19.2548 1.0924C20.0752 1.10933 20.5683 1.79707 20.7122 2.09187C21.9363 5.05701 22.4125 6.75516 22.4125 7.47878C22.2527 8.25071 21.5914 9.70625 19.2548 10.3465C16.8263 11.0118 15.4496 9.71762 15.0177 9.22077M8.89134 9.22077C9.23319 9.64067 10.3056 10.4858 11.86 10.5072C13.4146 10.5287 14.7568 9.44414 15.2336 8.89921C15.3685 8.7384 15.66 8.26135 15.9623 7.31797" stroke="#2B2B2B" stroke-linecap="round" stroke-linejoin="round"/>
</g>
<defs>
<clipPath id="clip0_7_91">
<rect width="23" height="22" fill="white"/>
</clipPath>
</defs>
</svg>
