<svg width="22" height="22" viewBox="0 0 22 22" fill="none" xmlns="http://www.w3.org/2000/svg">
<path d="M13.2618 2.59937C12.1956 1.53312 11.6625 1 11 1C10.3375 1 9.8044 1.53312 8.73815 2.59937C8.09832 3.2392 7.46427 3.53626 6.55208 3.53626C5.7556 3.53626 4.62243 3.38178 4 4.00944C3.38249 4.63214 3.53628 5.76065 3.53628 6.55206C3.53628 7.46428 3.2392 8.09832 2.59935 8.73817C1.53312 9.8044 1.00001 10.3375 1 11C1.00002 11.6624 1.53314 12.1956 2.59938 13.2618C3.31616 13.9786 3.53628 14.4414 3.53628 15.4479C3.53628 16.2444 3.38181 17.3776 4.00949 18C4.63218 18.6175 5.76068 18.4637 6.55206 18.4637C7.52349 18.4637 7.99128 18.6537 8.68457 19.347C9.2749 19.9374 10.0663 21 11 21C11.9337 21 12.7251 19.9374 13.3154 19.347C14.0087 18.6537 14.4765 18.4637 15.4479 18.4637C16.2393 18.4637 17.3678 18.6175 17.9905 18M17.9905 18C18.6182 17.3776 18.4637 16.2444 18.4637 15.4479C18.4637 14.4414 18.6838 13.9786 19.4006 13.2618C20.4669 12.1956 21 11.6624 21 11C21 10.3375 20.4669 9.8044 19.4006 8.73817M17.9905 18H18" stroke="black" stroke-linecap="round" stroke-linejoin="round"/>
<path d="M7 9.3077C7 9.3077 9.25 9 11 13C11 13 16.0588 3 21 1" stroke="black" stroke-linecap="round" stroke-linejoin="round"/>
</svg>
